:SAMPLES-PER-SECOND 30
:FULLY-SPECIFIED
:DEGREES
615
root  47.7056 34.5882 2.11484 33.5142 71.2481 32.1996
RightUpLeg  -27.1589 -4.7598 -20.5625
RightLeg  55.4928 3.30823 4.76016
RightFoot  -29.5222 0.770379 6.0658
RightToes  -1.81608e-008 0 -3.6325e-017
Spine  24.9252 -3.36706 1.25156
Spine1  -7.69477 -3.19935 -0.711002
HEad  -32.2531 -19.7471 3.50604
LeftShoulder1  -0.269517 4.24818 -30.0565
LeftArm  -11.8261 20.1467 -37.8672
LeftForeArm  21.0928 -8.2622 -4.15664
LeftHand  -0.0349478 7.85318 0.361163
RightShoulder  -0.369223 -4.82429 20.9732
RightArm  4.8316 6.65071 31.0123
RightForeArm  5.34881 7.51386 4.04845
RightHand  -0.213381 0.932792 -4.02731
LeftUpLeg  -14.2266 15.4696 17.7337
LeftLeg  -1.14945 4.15282 -0.788678
LeftFoot  10.6759 3.91346 -20.2767
LeftToes  1.81866e-011 -6.13092e-011 2.52013e-011
616
root  47.236 34.793 2.36174 37.3727 71.2994 36.1067
RightUpLeg  -27.5046 -5.00671 -20.884
RightLeg  54.9225 2.92358 4.06813
RightFoot  -28.5755 0.687944 5.81813
RightToes  -1.81608e-008 0 -3.6325e-017
Spine  24.6073 -3.76505 1.0609
Spine1  -7.7255 -3.64458 -0.626484
HEad  -31.2019 -18.9291 2.3062
LeftShoulder1  -0.205458 4.07697 -29.6436
LeftArm  -11.9857 20.0609 -38.1523
LeftForeArm  21.6631 -11.0747 -4.20875
LeftHand  -0.0265348 7.65245 0.713592
RightShoulder  -0.458834 -5.10698 21.7293
RightArm  4.98856 5.2286 29.2166
RightForeArm  3.87814 4.96707 3.92633
RightHand  -0.195381 1.31452 -3.50695
LeftUpLeg  -12.9139 14.8386 16.8652
LeftLeg  -0.997586 3.53625 -0.831551
LeftFoot  9.75071 3.811 -20.5932
LeftToes  1.81866e-011 -6.13092e-011 2.52013e-011
617
root  46.8446 35.0844 2.55583 41.5541 71.416 40.2623
RightUpLeg  -27.4456 -5.14939 -21.3087
RightLeg  53.7064 2.45217 3.19754
RightFoot  -27.3531 0.630647 5.80403
RightToes  -1.81608e-008 0 -3.6325e-017
Spine  24.3014 -3.80443 -0.0196089
Spine1  -8.08751 -4.04499 0.82496
HEad  -29.4064 -18.8192 0.618735
LeftShoulder1  -0.0693736 3.69948 -29.3387
LeftArm  -12.7296 20.1583 -39.0011
LeftForeArm  23.8265 -13.9333 -3.674
LeftHand  -0.0289992 6.6866 0.588868
RightShoulder  -0.467085 -5.1144 22.1198
RightArm  5.1166 2.16729 27.425
RightForeArm  3.70407 5.1187 3.70582
RightHand  -0.113185 1.39759 -2.07346
LeftUpLeg  -11.0983 14.083 15.8326
LeftLeg  -1.1546 4.61105 -0.862149
LeftFoot  8.99825 3.51785 -19.7503
LeftToes  1.81866e-011 -6.13092e-011 2.52013e-011
618
root  46.518 35.401 2.71702 45.5453 71.8705 43.64
RightUpLeg  -27.5876 -5.01755 -21.2482
RightLeg  52.1023 1.69214 1.96194
RightFoot  -26.0303 0.601883 6.03702
RightToes  -1.81608e-008 0 -3.6325e-017
Spine  23.4082 -3.87002 -1.07679
Spine1  -8.24684 -4.49509 2.70236
HEad  -28.5403 -18.4863 -0.403713
LeftShoulder1  -0.13865 3.8925 -29.5297
LeftArm  -10.7229 18.7621 -38.5776
LeftForeArm  23.5453 -16.1051 -3.94162
LeftHand  -0.0274283 6.06019 0.871744
RightShoulder  -0.471337 -5.13854 21.9448
RightArm  5.33097 -0.958032 26.7227
RightForeArm  2.31219 6.16591 3.60623
RightHand  -0.175875 1.42859 -3.15659
LeftUpLeg  -9.84538 13.4415 15.0476
LeftLeg  -0.788556 5.7186 -0.638195
LeftFoot  8.71916 3.35459 -19.1164
LeftToes  1.81866e-011 -6.13092e-011 2.52013e-011
619
root  46.2311 35.7162 2.83277 50.1113 72.687 47.8365
RightUpLeg  -27.1366 -5.20315 -21.173
RightLeg  50.3403 0.875468 0.776635
RightFoot  -24.7611 0.569778 6.26783
RightToes  -1.81608e-008 0 -3.6325e-017
Spine  22.2948 -4.15876 -1.69243
Spine1  -8.12695 -4.9912 3.70611
HEad  -28.294 -18.4067 -0.487841
LeftShoulder1  -0.128546 3.86527 -29.4069
LeftArm  -9.49094 17.094 -38.3625
LeftForeArm  23.6831 -18.2799 -3.82371
LeftHand  -0.0218306 6.05316 1.63113
RightShoulder  -0.538689 -5.34013 22.5165
RightArm  5.74721 -4.10915 26.0173
RightForeArm  1.80047 7.89094 3.56637
RightHand  -0.183631 2.16913 -2.9735
LeftUpLeg  -8.69511 13.1142 14.4761
LeftLeg  0.483109 4.9604 -0.587356
LeftFoot  8.42469 3.26085 -18.8656
LeftToes  1.81866e-011 -6.13092e-011 2.52013e-011
620
root  45.9889 36.0185 2.87399 54.0471 73.2661 51.7231
RightUpLeg  -26.3701 -5.366 -21.2827
RightLeg  48.5445 0.23142 -0.0597643
RightFoot  -23.4394 0.531184 6.50638
RightToes  -1.81608e-008 0 -3.6325e-017
Spine  21.2766 -4.34564 -2.39825
Spine1  -7.71132 -5.41386 4.70669
HEad  -27.906 -18.5034 -0.497371
LeftShoulder1  -0.201187 4.06845 -29.3568
LeftArm  -8.78697 15.0015 -37.9526
LeftForeArm  23.7896 -20.2814 -3.69787
LeftHand  -0.0276975 5.84934 1.04182
RightShoulder  -0.592358 -5.51408 22.6874
RightArm  5.77963 -7.28157 26.5706
RightForeArm  1.16075 9.66546 3.45446
RightHand  -0.256585 2.60692 -3.95753
LeftUpLeg  -6.79522 12.9491 14.106
LeftLeg  1.47609 3.29737 -0.759177
LeftFoot  7.78616 3.16115 -18.8997
LeftToes  1.81866e-011 -6.13092e-011 2.52013e-011
